<?xml version="1.0" encoding="utf-8"?>
<!-- Generator: Adobe Illustrator 19.2.0, SVG Export Plug-In . SVG Version: 6.00 Build 0)  -->
<svg version="1.1" id="Слой_1" xmlns="http://www.w3.org/2000/svg" xmlns:xlink="http://www.w3.org/1999/xlink" x="0px" y="0px"
	 viewBox="0 0 35 35" style="enable-background:new 0 0 35 35;" xml:space="preserve">
<style type="text/css">
	.st0{fill:#111213;}
	.st1{fill:#DADADB;}
</style>
<g>
	<polygon class="st0" points="13,17.4 3.2,17.4 3.2,3.2 17.4,3.2 17.4,4.6 20.6,4.6 20.6,0 0,0 0,20.6 13,20.6 	"/>
	<g>
		<path class="st0" d="M18.4,26.4C12.7,26.4,8,21.8,8,16c0-5.7,4.6-10.4,10.4-10.4c5.7,0,10.4,4.7,10.4,10.4
			C28.7,21.8,24.1,26.4,18.4,26.4z"/>
		<path class="st1" d="M18.4,6.7c5.2,0,9.4,4.2,9.4,9.4s-4.2,9.4-9.4,9.4S9,21.3,9,16.1S13.2,6.7,18.4,6.7 M18.4,4.7
			C12.1,4.7,7,9.8,7,16.1c0,6.3,5.1,11.4,11.4,11.4s11.4-5.1,11.4-11.4C29.7,9.8,24.6,4.7,18.4,4.7L18.4,4.7z"/>
	</g>
	<g>
		<g>
			<ellipse class="st1" cx="18.4" cy="10.2" rx="1.9" ry="1.9"/>
		</g>
		<g>
			<polygon class="st1" points="19.8,20.3 19.8,15.8 19.8,15.8 19.8,13.2 15.5,13.2 15.5,15.8 17,15.8 17,20.3 15.2,20.3 15.2,22.8 
				21.5,22.8 21.5,20.3 			"/>
		</g>
	</g>
</g>
</svg>
