<?xml version="1.0" encoding="utf-8"?>
<!-- Generator: Adobe Illustrator 19.2.0, SVG Export Plug-In . SVG Version: 6.00 Build 0)  -->
<svg version="1.1" id="Слой_1" xmlns="http://www.w3.org/2000/svg" xmlns:xlink="http://www.w3.org/1999/xlink" x="0px" y="0px"
	 viewBox="0 0 35 35" style="enable-background:new 0 0 35 35;" xml:space="preserve">
<style type="text/css">
	.st0{fill:#111213;}
</style>
<g>
	<polygon class="st0" points="8.6,17.4 3.2,17.4 3.2,3.2 17.4,3.2 17.4,5.2 20.6,5.2 20.6,0 0,0 0,20.6 8.6,20.6 	"/>
	<path class="st0" d="M9.4,10.4c4.7-1.5,9.4-3.1,14.1-4.6c-1.2,4-1.1,7.9,0,11.9l-9.6-2.6c0.1,1.7,0.5,3.4,1.2,5
		c-0.8,0.7-1.8,0.9-2.9,1c-1.1-2.1-1.7-4.4-1.8-6.9l-1.1-0.3C9.4,12.7,9.4,11.5,9.4,10.4L9.4,10.4z M27.8,15.1
		c0.5,0.2,0.8,0.8,0.6,1.3c-0.2,0.5-0.8,0.8-1.3,0.6l-2.2-0.7c-0.5-0.2-0.8-0.8-0.6-1.3c0.2-0.5,0.8-0.8,1.3-0.6L27.8,15.1
		L27.8,15.1z M25.6,8.9c-0.5,0.2-1.1-0.1-1.3-0.6c-0.2-0.5,0.1-1.1,0.6-1.3l2.2-0.7c0.5-0.2,1.1,0.1,1.3,0.6
		c0.2,0.5-0.1,1.1-0.6,1.3L25.6,8.9L25.6,8.9z M25.5,12.7c-0.6,0-1-0.5-1-1c0-0.6,0.5-1,1-1h2.2c0.6,0,1,0.5,1,1c0,0.6-0.5,1-1,1
		H25.5L25.5,12.7z M7,10h1.2c0.2,0,0.4,0.2,0.4,0.4v3.5c0,0.2-0.2,0.4-0.4,0.4H7c-0.2,0-0.4-0.2-0.4-0.4v-3.5C6.6,10.2,6.8,10,7,10
		L7,10z M12.9,15.7c0,0.7,0.1,1.4,0.3,2c0.1,0.6,0.3,1.2,0.5,1.8c0.1,0.2,0.3,0.3,0.5,0.2c0.2-0.1,0.3-0.3,0.2-0.5
		c-0.2-0.5-0.4-1.1-0.5-1.7s-0.2-1.2-0.2-1.9c0-0.2-0.2-0.4-0.4-0.4C13,15.3,12.9,15.5,12.9,15.7L12.9,15.7z M20.6,8
		c-0.3,1.3-0.5,2.6-0.5,3.9s0.2,2.6,0.5,3.9c0.1,0.3,0.3,0.4,0.6,0.4c0.3-0.1,0.4-0.3,0.4-0.6c-0.3-1.2-0.5-2.4-0.5-3.6
		s0.2-2.4,0.5-3.6c0.1-0.3-0.1-0.6-0.4-0.6C21,7.6,20.7,7.8,20.6,8z"/>
</g>
</svg>
