<?xml version="1.0" encoding="utf-8"?>
<!-- Generator: Adobe Illustrator 19.2.0, SVG Export Plug-In . SVG Version: 6.00 Build 0)  -->
<svg version="1.1" id="Слой_1" xmlns="http://www.w3.org/2000/svg" xmlns:xlink="http://www.w3.org/1999/xlink" x="0px" y="0px"
	 viewBox="0 0 35 35" style="enable-background:new 0 0 35 35;" xml:space="preserve">
<style type="text/css">
	.st0{fill:#111213;}
	.st1{fill:#DADADB;}
</style>
<g>
	<path class="st0" d="M0,0v20.6h20.6V0H0z M17.4,17.4H3.2V3.2h14.2V17.4z"/>
	<g>
		<path class="st0" d="M27.7,21.3V19h-4.6v2.3h-4.5V19h-1.2v-7.2h0.9c0.1-1.4,0.7-2.6,1.6-3.6c1.1-1.1,2.5-1.7,4-1.7H27
			c1.5,0,2.9,0.6,4,1.7c1,1,1.6,2.3,1.6,3.6h0.7V19h-1.2v2.3H27.7z M28.9,11.8c-0.1-0.4-0.2-0.7-0.5-0.9c-0.4-0.4-0.8-0.6-1.3-0.6
			H24c-0.5,0-1,0.2-1.3,0.5s-0.4,0.6-0.5,0.9h6.7V11.8z"/>
		<path class="st1" d="M27.1,7.5c1.3,0,2.5,0.5,3.4,1.4s1.4,2,1.4,3.4v0.5h0.7v5.4h-1.2v2.3h-2.7v-2.3h-6.4v2.3h-2.7v-2.3h-1.2v-5.4
			h0.9v-0.5c0-1.3,0.5-2.5,1.4-3.4s2-1.4,3.4-1.4H27.1 M21.2,12.8h8.7v-0.5c0-0.8-0.3-1.5-0.8-2s-1.2-0.8-2-0.8H24
			c-0.8,0-1.5,0.3-2,0.8s-0.8,1.2-0.8,2V12.8 M28.1,16.2h1.8h1.3v-1.9l-3.1,0.5L28.1,16.2 M19.6,16.2h1.6h1.6v-1.4l-3.1-0.5v1.9
			 M27.1,5.7H24c-1.7,0-3.4,0.7-4.6,1.9c-0.9,0.9-1.6,2.1-1.8,3.4h-1v1.8v5.4V20h1.2v0.4v1.8h1.8h2.7H24v-1.8V20h2.8v0.4v1.8h1.8
			h2.7h1.8v-1.8V20h1.2v-1.8v-5.4V11h-0.8c-0.2-1.3-0.9-2.4-1.8-3.4C30.5,6.3,28.9,5.7,27.1,5.7L27.1,5.7z"/>
	</g>
	<g>
		<path class="st0" d="M18,24.7v-3h-7.3v3H6v-3H4.4v-8.2h1.1v-0.1c0-1.8,0.7-3.6,2-4.9s3-2,4.9-2h4.1c1.8,0,3.6,0.7,4.9,2s2,3,2,4.9
			v0.1h0.9v8.3h-1.6v3L18,24.7L18,24.7z M21.4,18v-1.2l-2.9,0.4V18L21.4,18L21.4,18z M10.2,18v-0.8l-2.9-0.4V18L10.2,18L10.2,18z
			 M19.6,13.5v-0.1c0-0.8-0.3-1.6-0.9-2.2s-1.4-0.9-2.2-0.9h-4.1c-0.8,0-1.6,0.3-2.2,0.9c-0.6,0.6-0.9,1.4-0.9,2.2v0.1H19.6z"/>
		<path class="st1" d="M16.6,7.1c1.7,0,3.3,0.7,4.4,1.8c1.1,1.1,1.8,2.7,1.8,4.4V14h0.9v7.1h-1.6v3h-3.5v-3h-8.5v3H6.6v-3H5V14h1.1
			v-0.7c0-1.7,0.7-3.3,1.8-4.4s2.7-1.8,4.4-1.8H16.6 M8.8,14.1h11.5v-0.7c0-1-0.4-1.9-1.1-2.6s-1.6-1.1-2.6-1.1h-4.1
			c-1,0-1.9,0.4-2.6,1.1c-0.7,0.7-1.1,1.6-1.1,2.6L8.8,14.1 M17.9,18.6h2.4H22v-2.5l-4.1,0.6V18.6 M6.7,18.6h2.1h2.1v-1.9l-4.1-0.6
			L6.7,18.6 M16.6,5.9h-4.1c-2,0-3.9,0.8-5.3,2.2c-1.3,1.3-2.1,3-2.2,4.8H3.8v1.2v7.1v1.2H5h0.4v1.8v1.2h1.2h3.5h1.2v-1.2v-1.8h6.1
			v1.8v1.2h1.2h3.5h1.2v-1.2v-1.8h0.4h1.2v-1.2v-7.1v-1.2H24c-0.1-1.8-0.9-3.5-2.2-4.8C20.4,6.7,18.6,5.9,16.6,5.9L16.6,5.9z
			 M10,12.9c0.1-0.5,0.3-0.9,0.7-1.3c0.5-0.5,1.1-0.7,1.7-0.7h4.1c0.7,0,1.3,0.3,1.7,0.7c0.4,0.4,0.6,0.8,0.7,1.3H10L10,12.9z"/>
	</g>
</g>
</svg>
