<?xml version="1.0" encoding="utf-8"?>
<!-- Generator: Adobe Illustrator 19.2.0, SVG Export Plug-In . SVG Version: 6.00 Build 0)  -->
<svg version="1.1" id="Слой_1" xmlns="http://www.w3.org/2000/svg" xmlns:xlink="http://www.w3.org/1999/xlink" x="0px" y="0px"
	 viewBox="0 0 35 35" style="enable-background:new 0 0 35 35;" xml:space="preserve">
<style type="text/css">
	.st0{fill:#111213;}
	.st1{fill:#DADADB;}
</style>
<g>
	<rect x="19.1" y="8" class="st0" width="9.8" height="1.5"/>
	<rect x="19.1" y="11.6" class="st0" width="9.8" height="1.5"/>
	<rect x="19.1" y="15.3" class="st0" width="9.8" height="1.5"/>
	<polygon class="st0" points="6.6,17.4 3.2,17.4 3.2,3.2 17.4,3.2 17.4,3.8 20.6,3.8 20.6,0 0,0 0,20.6 6.6,20.6 	"/>
	<g>
		<path class="st0" d="M15.4,24.2c-1.9,0-6.5-0.1-7.9-1.5l-0.3-0.2v-0.4c0-2.3,0.5-5.4,2.5-7.1l0.3-0.2h2h0.2c0.2,0,0.2,0,0.3-0.1
			c0,0,0.1-0.2,0.2-0.4c-0.3-0.4-0.5-0.8-0.7-1.3c-0.3-0.2-0.5-0.5-0.6-0.9c-0.2-0.4-0.3-0.9-0.2-1.6V9.9l0.1-0.1
			c-0.2-1.7,0-3,1.2-4c0.8-0.7,2.1-1.1,3.4-1.1c1.2,0,2.4,0.3,3.2,0.9c1.1,0.8,1.6,2.2,1.5,4.1l0.2,0.1v0.6c0,0.6-0.1,1.1-0.2,1.5
			c-0.1,0.3-0.3,0.6-0.6,0.8c-0.2,0.4-0.4,0.8-0.6,1.2c0.1,0.2,0.1,0.4,0.2,0.5c0.1,0,0.1,0,0.2,0s0.1,0,0.2,0c0.5,0,1.1,0,1.6,0H22
			l0.3,0.2c1.7,1.6,2.6,5.1,2.4,7.3v0.4l-0.3,0.2C22.4,23.9,18.5,24.2,15.4,24.2L15.4,24.2z"/>
		<path class="st1" d="M15.7,5.7c1,0,1.9,0.3,2.6,0.8c1,0.7,1.3,1.9,1,3.8l0.1,0.1l0.1,0.1v0.2c0,0.5,0,0.9-0.2,1.2
			c-0.1,0.3-0.3,0.5-0.5,0.6c-0.2,0.6-0.5,1.1-0.9,1.6c0.1,0.6,0.3,1.2,0.6,1.5c0.2,0.1,0.5,0.2,0.8,0.2c0.1,0,0.2,0,0.3,0
			c0.5,0,1,0,1.5,0c1.4,1.3,2.3,4.5,2.1,6.5c-1.2,0.8-4.6,1.2-8,1.2c-3.3,0-6.4-0.4-7.3-1.2c0-1.8,0.4-4.9,2.2-6.5
			c0.6,0,1.1,0,1.7,0c0.1,0,0.1,0,0.2,0c0.4,0,0.7-0.1,0.9-0.4s0.4-0.7,0.5-1.2c-0.4-0.4-0.8-1-0.9-1.6c-0.2-0.1-0.4-0.3-0.5-0.6
			c-0.1-0.3-0.2-0.7-0.2-1.2v-0.2l0.1-0.1c0,0,0,0,0.1,0c-0.3-2,0-3,0.8-3.7C13.6,6,14.6,5.7,15.7,5.7 M15.7,3.9
			c-1.5,0-2.9,0.5-3.9,1.3c-1.4,1.2-1.7,2.7-1.6,4.2l-0.1,0.1v0.9v0.2c0,0.8,0.1,1.4,0.3,1.9c0.2,0.4,0.4,0.7,0.7,1
			c0,0.1,0.1,0.2,0.2,0.3h-0.1h-0.9H9.6l-0.5,0.4c-2.2,1.9-2.7,5.3-2.8,7.8v0.8l0.6,0.5c1.5,1.5,5.5,1.8,8.5,1.8
			c1.6,0,6.9-0.1,9-1.6l0.7-0.5l0.1-0.8c0.3-2.4-0.7-6.2-2.7-8L22,13.7h-0.7c-0.3,0-0.6,0-0.9,0c0-0.1,0.1-0.2,0.1-0.3
			c0.3-0.3,0.5-0.6,0.7-1c0.2-0.5,0.3-1.2,0.3-1.9v-0.1V9.5l-0.2-0.1c0-1.9-0.6-3.4-1.9-4.3C18.4,4.3,17.1,3.9,15.7,3.9L15.7,3.9z"
			/>
	</g>
</g>
</svg>
