<?xml version="1.0" encoding="utf-8"?>
<!-- Generator: Adobe Illustrator 19.2.0, SVG Export Plug-In . SVG Version: 6.00 Build 0)  -->
<svg version="1.1" id="Слой_1" xmlns="http://www.w3.org/2000/svg" xmlns:xlink="http://www.w3.org/1999/xlink" x="0px" y="0px"
	 viewBox="0 0 35 35" style="enable-background:new 0 0 35 35;" xml:space="preserve">
<style type="text/css">
	.st0{fill:#111213;}
	.st1{fill:#DADADB;}
</style>
<g>
	<path class="st0" d="M0,0v20.6h20.6V0H0z M17.4,17.4H3.2V3.2h14.2V17.4z"/>
	<g>
		<path class="st0" d="M17.9,27.1c-5.7,0-10.4-4.6-10.4-10.4c0-5.7,4.6-10.4,10.4-10.4c5.7,0,10.4,4.7,10.4,10.4
			C28.2,22.5,23.6,27.1,17.9,27.1z"/>
		<path class="st1" d="M17.9,7.4c5.2,0,9.4,4.2,9.4,9.4s-4.2,9.4-9.4,9.4S8.5,22,8.5,16.8S12.7,7.4,17.9,7.4 M17.9,5.4
			c-6.3,0-11.4,5.1-11.4,11.4c0,6.3,5.1,11.4,11.4,11.4s11.4-5.1,11.4-11.4C29.2,10.5,24.1,5.4,17.9,5.4L17.9,5.4z"/>
	</g>
	<g>
		<path class="st1" d="M18.9,23.8c0,0.2-0.1,0.3-0.3,0.3h-1.5c-0.2,0-0.3-0.1-0.3-0.3v-1.3c0-0.2,0.1-0.3,0.3-0.3h1.5
			c0.2,0,0.3,0.1,0.3,0.3V23.8z"/>
		<path class="st1" d="M20.6,17.3c-0.9,0.8-1.6,1.4-1.6,3.3c0,0.2-0.1,0.3-0.3,0.3h-1.5c-0.1,0-0.2,0-0.2-0.1
			c-0.1-0.1-0.1-0.1-0.1-0.2c0-2.9,1.4-4.1,2.4-4.9c0.7-0.6,1.1-0.9,1.1-1.7c0-1.3-1.1-2.4-2.4-2.4c-1.2,0-2.3,1-2.4,2.2
			c0,0.2-0.1,0.3-0.3,0.3h-1.5c-0.1,0-0.2,0-0.2-0.1c-0.1-0.1-0.1-0.1-0.1-0.2c0.1-2.4,2.1-4.3,4.5-4.3c2.5,0,4.5,2,4.5,4.5
			C22.4,15.8,21.4,16.6,20.6,17.3L20.6,17.3z"/>
	</g>
</g>
</svg>
