<?xml version="1.0" encoding="utf-8"?>
<!-- Generator: Adobe Illustrator 19.2.0, SVG Export Plug-In . SVG Version: 6.00 Build 0)  -->
<svg version="1.1" id="Слой_1" xmlns="http://www.w3.org/2000/svg" xmlns:xlink="http://www.w3.org/1999/xlink" x="0px" y="0px"
	 viewBox="0 0 35 35" style="enable-background:new 0 0 35 35;" xml:space="preserve">
<style type="text/css">
	.st0{fill:#111213;}
	.st1{fill:#DADADB;}
</style>
<g>
	<path class="st0" d="M0,0v20.6h20.6V0H0z M17.4,17.4H3.2V3.2h14.2V17.4z"/>
	<g>
		<polygon class="st0" points="19.7,26.3 19.7,19.8 17.5,19.8 17.5,26.3 9.3,26.3 9.3,18.5 7.8,18.5 6.7,15.9 16.9,5 18.6,6.8 
			18.6,5.8 23.8,5.8 23.8,9 23.2,9 23.2,11.8 27.1,15.9 25.9,18.5 24.4,18.5 24.4,26.3 		"/>
		<path class="st1" d="M16.9,6.4L17.5,7l8.4,9l-0.6,1.4h-1.9v7.2v0.6h-0.6h-2.1v-5.6c0-0.5-0.4-0.9-0.9-0.9h-2.5
			c-0.5,0-0.9,0.4-0.9,0.9v5.6h-5.7h-0.6v-0.6v-7.2H8.4L7.8,16l8.4-9L16.9,6.4 M22.8,6.8V8h-0.6v3.3l-2.1-2.2V8h-0.5V6.8H22.8
			 M16.9,3.5L15.4,5l-0.6,0.6l-8.4,9l-0.9,1L6,16.9l0.6,1.4l0.5,1.2h1.2v5.3v0.6v2h2h0.6h5.7h2v-2V21h0.2v4.4v2h2h2.1h0.6h2v-2v-0.6
			v-5.3h1.2l0.5-1.2l0.6-1.4l0.5-1.2l-0.9-1l-3.1-3.4l0,0V10h0.6V8V6.8v-2h-2h-3.2h-1.5L16.9,3.5L16.9,3.5z"/>
	</g>
</g>
</svg>
