<?xml version="1.0" encoding="utf-8"?>
<!-- Generator: Adobe Illustrator 19.2.0, SVG Export Plug-In . SVG Version: 6.00 Build 0)  -->
<svg version="1.1" id="Слой_1" xmlns="http://www.w3.org/2000/svg" xmlns:xlink="http://www.w3.org/1999/xlink" x="0px" y="0px"
	 viewBox="0 0 35 35" style="enable-background:new 0 0 35 35;" xml:space="preserve">
<style type="text/css">
	.st0{fill:#111213;}
	.st1{fill:#545558;}
	.st2{fill:#DADADB;}
	.st3{fill:#C9C8C9;}
</style>
<g>
	<path class="st0" d="M0,0v20.6h20.6V0H0z M17.4,17.4H3.2V3.2h14.2V17.4z"/>
	<g>
		<g>
			<path class="st1" d="M18.4,24.2c-2.2,0-4.4,0-6-0.5c-2-0.6-3-2-3-4.1c0-3.5,2.8-8.9,6.4-10.6l0.6-0.3l0.5,0.4
				c0,0,0.1,0.1,0.2,0.1h2.6c0.1,0,0.2,0,0.2-0.1l0.5-0.4L21,9c3.6,1.8,6.4,7.2,6.4,10.6C27.4,24.2,22.8,24.2,18.4,24.2L18.4,24.2z"
				/>
			<path class="st2" d="M20.6,9.8c3.4,1.7,5.8,6.8,5.8,9.8c0,3.6-3.6,3.6-8,3.6l0,0c-4.4,0-8,0-8-3.6c0-3,2.5-8.1,5.8-9.8
				c0.2,0.2,0.5,0.3,0.9,0.3h2.6C20,10.2,20.3,10,20.6,9.8 M18.4,17.1L18.4,17.1c0.5,0,0.9,0.1,1.2,0.3c0.1,0.1,0.2,0.2,0.3,0.3
				c0.1,0.1,0.1,0.2,0.1,0.4c0,0.1,0,0.2-0.1,0.4c-0.1,0.2-0.3,0.4-0.5,0.5c-0.3,0.1-0.6,0.2-0.9,0.2c-0.5,0-0.9-0.1-1.2-0.4
				c-0.1-0.1-0.2-0.2-0.3-0.3c-0.1-0.1-0.1-0.2-0.1-0.4c0-0.2-0.2-0.4-0.4-0.4c-0.2,0-0.4,0.2-0.4,0.4c0,0.3,0.1,0.6,0.2,0.8
				c0.2,0.4,0.5,0.6,0.9,0.8c0.3,0.1,0.6,0.2,0.9,0.3v0.4c0,0.2,0.2,0.4,0.4,0.4c0.2,0,0.4-0.2,0.4-0.4V20c0.5-0.1,0.9-0.2,1.3-0.5
				c0.2-0.2,0.4-0.4,0.6-0.6c0.1-0.2,0.2-0.5,0.2-0.8s-0.1-0.6-0.2-0.8c-0.2-0.4-0.5-0.6-0.9-0.8c-0.4-0.2-0.8-0.3-1.3-0.3h-0.1
				c-0.4,0-0.8-0.2-1.1-0.4c-0.1-0.1-0.2-0.2-0.3-0.3C17,15.4,17,15.3,17,15.1c0-0.1,0-0.2,0.1-0.4c0.1-0.2,0.3-0.4,0.5-0.5
				c0.3-0.1,0.6-0.2,0.9-0.2c0.5,0,0.9,0.1,1.2,0.4c0.1,0.1,0.2,0.2,0.3,0.3c0.1,0.1,0.1,0.2,0.1,0.4c0,0.2,0.2,0.4,0.4,0.4
				c0.2,0,0.4-0.2,0.4-0.4c0-0.3-0.1-0.6-0.2-0.8c-0.2-0.4-0.5-0.7-0.9-0.8c-0.3-0.1-0.6-0.2-0.9-0.3v-0.4c0-0.2-0.2-0.4-0.4-0.4
				c-0.2,0-0.4,0.2-0.4,0.4v0.4c-0.5,0.1-0.9,0.2-1.3,0.5c-0.2,0.2-0.4,0.4-0.6,0.6c-0.1,0.2-0.2,0.5-0.2,0.8s0.1,0.6,0.2,0.8
				c0.2,0.4,0.5,0.6,0.9,0.8C17.4,16.9,17.9,17.1,18.4,17.1 M20.3,7.5l-0.8,0.7h-2.2l-0.8-0.7l-1.2,0.6c-4,2-6.9,7.7-6.9,11.5
				c0,5.6,5.5,5.6,10,5.6c2.3,0,4.5,0,6.3-0.5c2.4-0.8,3.7-2.6,3.7-5.1c0-3.8-3-9.6-6.9-11.5L20.3,7.5L20.3,7.5z"/>
		</g>
		<g>
			<path class="st1" d="M16.9,10.3c-0.8,0-1.4-0.6-1.4-1.4s0.6-1.4,1.4-1.4h3c0.8,0,1.4,0.6,1.4,1.4s-0.6,1.4-1.4,1.4H16.9z"/>
			<path class="st2" d="M19.9,8.4c0.2,0,0.4,0.2,0.4,0.4c0,0.2-0.2,0.4-0.4,0.4h-3c-0.2,0-0.4-0.2-0.4-0.4c0-0.2,0.2-0.4,0.4-0.4
				H19.9 M19.9,6.4h-3c-1.3,0-2.4,1.1-2.4,2.4s1.1,2.4,2.4,2.4h3c1.3,0,2.4-1.1,2.4-2.4S21.2,6.4,19.9,6.4L19.9,6.4z"/>
		</g>
		<g>
			<path class="st1" d="M15.7,8.7c-0.6-0.4-1-1.1-1-1.9c0-1.2,0.9-2.2,2.1-2.2c0.3,0,0.6,0.1,0.8,0.2c0.3-0.1,0.5-0.2,0.8-0.2
				s0.6,0.1,0.9,0.2c0.3-0.1,0.6-0.2,0.9-0.2c1.1,0,2.1,1,2.1,2.2c0,0.8-0.4,1.5-1,1.9l-0.6,0.4l-0.5-0.5c0,0-0.1-0.1-0.2-0.1h-3
				c-0.1,0-0.2,0.1-0.2,0.1l-0.5,0.5L15.7,8.7z"/>
			<path class="st2" d="M20.1,5.6c0.6,0,1.1,0.5,1.1,1.2c0,0.5-0.2,0.8-0.6,1c-0.2-0.2-0.5-0.3-0.9-0.3H17c-0.3,0-0.6,0.1-0.9,0.3
				c-0.3-0.2-0.6-0.6-0.6-1c0-0.7,0.5-1.2,1.1-1.2c0.3,0,0.6,0.2,0.8,0.5c0.2-0.3,0.5-0.5,0.8-0.5c0.4,0,0.7,0.2,0.9,0.5
				C19.4,5.8,19.7,5.6,20.1,5.6 M20.1,3.6c-0.3,0-0.6,0-0.9,0.1c-0.3-0.1-0.6-0.1-0.9-0.1s-0.6,0-0.8,0.1c-0.3-0.1-0.6-0.1-0.8-0.1
				c-1.7,0-3.1,1.4-3.1,3.2c0,1.1,0.6,2.2,1.5,2.8l1.2,0.7l0.9-0.8h2.2l0.9,0.8l1.2-0.7C22.4,9,23,8,23,6.8
				C23.1,5,21.7,3.6,20.1,3.6L20.1,3.6z"/>
		</g>
	</g>
	<g>
		<g>
			<path class="st0" d="M20.6,9.8c-0.2,0.2-0.5,0.3-0.9,0.3H17c-0.3,0-0.6-0.1-0.9-0.3c-3.4,1.7-5.8,6.8-5.8,9.8
				c0,3.6,3.6,3.6,8,3.6s8,0,8-3.6C26.4,16.6,23.9,11.5,20.6,9.8z"/>
		</g>
		<g>
			<path class="st0" d="M20.3,8.8c0-0.2-0.2-0.4-0.4-0.4h-3c-0.2,0-0.4,0.2-0.4,0.4c0,0.2,0.2,0.4,0.4,0.4h3
				C20.1,9.3,20.3,9.1,20.3,8.8z"/>
		</g>
		<g>
			<path class="st0" d="M19.7,7.5c0.3,0,0.6,0.1,0.9,0.3c0.3-0.2,0.6-0.6,0.6-1c0-0.7-0.5-1.2-1.1-1.2c-0.4,0-0.7,0.2-0.9,0.5
				c-0.2-0.3-0.5-0.5-0.9-0.5c-0.3,0-0.6,0.2-0.8,0.5c-0.2-0.3-0.5-0.5-0.8-0.5c-0.6,0-1.1,0.5-1.1,1.2c0,0.5,0.2,0.8,0.6,1
				c0.2-0.2,0.5-0.3,0.9-0.3H19.7z"/>
		</g>
	</g>
	<g>
		<path class="st3" d="M16.5,15.4c0.1,0.2,0.2,0.3,0.4,0.4c0.3,0.3,0.8,0.4,1.4,0.4h0.1c0.6,0,1.2,0.1,1.7,0.4
			c0.5,0.2,0.9,0.6,1.2,1.1c0.2,0.3,0.3,0.7,0.3,1c0,0.4-0.1,0.7-0.3,1c-0.2,0.3-0.4,0.6-0.7,0.8c-0.4,0.3-1,0.6-1.6,0.6v0.5
			c0,0.3-0.3,0.6-0.6,0.6c-0.3,0-0.6-0.3-0.6-0.6v-0.5c-0.4-0.1-0.8-0.2-1.1-0.3c-0.5-0.2-0.9-0.6-1.2-1.1c-0.2-0.3-0.3-0.7-0.3-1
			s0.3-0.6,0.6-0.6c0.3,0,0.6,0.3,0.6,0.6c0,0.2,0,0.3,0.1,0.5s0.2,0.3,0.4,0.4c0.4,0.3,0.9,0.5,1.5,0.5c0.4,0,0.9-0.1,1.2-0.3
			c0.3-0.2,0.6-0.4,0.7-0.6s0.1-0.3,0.1-0.5s0-0.3-0.1-0.5s-0.2-0.3-0.4-0.4c-0.3-0.3-0.8-0.4-1.4-0.4h-0.1c-0.6,0-1.2-0.1-1.7-0.4
			c-0.5-0.2-0.9-0.6-1.2-1.1c-0.2-0.3-0.3-0.7-0.3-1c0-0.4,0.1-0.7,0.3-1s0.4-0.6,0.7-0.8c0.4-0.3,1-0.5,1.6-0.6V12
			c0-0.3,0.3-0.6,0.6-0.6c0.3,0,0.6,0.3,0.6,0.6v0.5c0.4,0.1,0.8,0.2,1.1,0.3c0.5,0.2,0.9,0.6,1.2,1.1c0.2,0.3,0.3,0.7,0.3,1
			s-0.3,0.6-0.6,0.6c-0.3,0-0.6-0.3-0.6-0.6c0-0.2,0-0.3-0.1-0.5s-0.2-0.3-0.4-0.4c-0.4-0.3-0.9-0.4-1.5-0.4c-0.4,0-0.9,0.1-1.2,0.3
			c-0.3,0.2-0.6,0.4-0.7,0.6s-0.1,0.3-0.1,0.5C16.4,15.1,16.4,15.3,16.5,15.4z"/>
	</g>
</g>
</svg>
