<?xml version="1.0" encoding="utf-8"?>
<!-- Generator: Adobe Illustrator 19.2.0, SVG Export Plug-In . SVG Version: 6.00 Build 0)  -->
<svg version="1.1" id="Слой_1" xmlns="http://www.w3.org/2000/svg" xmlns:xlink="http://www.w3.org/1999/xlink" x="0px" y="0px"
	 viewBox="0 0 35 35" style="enable-background:new 0 0 35 35;" xml:space="preserve">
<style type="text/css">
	.st0{fill:#111213;}
	.st1{fill:#DADADB;}
</style>
<g>
	<path class="st0" d="M0,0v20.6h20.6V0H0z M17.4,17.4H3.2V3.2h14.2V17.4z"/>
	<g>
		<path class="st0" d="M17.7,24.5c-1.9,0-6.5-0.1-7.8-1.5l-0.3-0.3v-0.4c0-2.3,0.5-5.4,2.5-7.1l0.3-0.2h2h0.2c0.2,0,0.2,0,0.2-0.1
			c0,0,0.1-0.2,0.2-0.4c-0.3-0.4-0.5-0.8-0.7-1.3c-0.3-0.2-0.5-0.5-0.6-0.8c-0.2-0.4-0.3-0.9-0.2-1.5v-0.6l0.1-0.1
			c-0.2-1.7,0-3,1.2-4c0.8-0.7,2-1.1,3.3-1.1c1.2,0,2.3,0.3,3.1,0.9c1.1,0.8,1.6,2.2,1.5,4l0.2,0.1v0.6c0,0.6-0.1,1.1-0.2,1.5
			c-0.1,0.3-0.3,0.6-0.6,0.8c-0.2,0.4-0.4,0.8-0.6,1.2c0.1,0.2,0.1,0.4,0.2,0.5c0.1,0,0.1,0,0.2,0s0.1,0,0.2,0c0.5,0,1,0,1.6,0h0.4
			l0.3,0.2c1.7,1.6,2.6,5,2.4,7.2v0.4l-0.3,0.2C24.7,24.2,20.8,24.5,17.7,24.5L17.7,24.5z"/>
		<path class="st1" d="M18,6.1c1,0,1.9,0.3,2.6,0.7c0.9,0.7,1.3,1.9,1,3.8l0.1,0.1l0.1,0.1V11c0,0.5,0,0.9-0.2,1.2
			c-0.1,0.3-0.3,0.5-0.5,0.6c-0.2,0.6-0.5,1.1-0.9,1.5c0.1,0.6,0.3,1.2,0.6,1.5c0.2,0.1,0.5,0.1,0.8,0.1c0.1,0,0.2,0,0.3,0
			c0.5,0,1,0,1.5,0c1.4,1.3,2.3,4.5,2.1,6.5c-1.2,0.8-4.6,1.2-7.9,1.2c-3.2,0-6.4-0.4-7.2-1.2c0-1.8,0.4-4.8,2.2-6.4
			c0.6,0,1.1,0,1.6,0c0.1,0,0.1,0,0.2,0c0.4,0,0.7-0.1,0.9-0.4s0.4-0.7,0.5-1.2c-0.4-0.4-0.7-1-0.9-1.6c-0.2-0.1-0.4-0.3-0.5-0.6
			c-0.1-0.3-0.2-0.7-0.2-1.2v-0.2l0.1-0.1c0,0,0,0,0.1,0c-0.3-2,0-3,0.8-3.7C16,6.4,17,6.1,18,6.1 M18,4.3c-1.5,0-2.9,0.5-3.9,1.3
			c-1.4,1.2-1.7,2.7-1.6,4.2l-0.1,0.1v0.9V11c0,0.8,0.1,1.4,0.3,1.9c0.2,0.4,0.4,0.7,0.7,1c0,0.1,0.1,0.2,0.2,0.3
			c-0.3,0-0.6,0-0.9,0H12l-0.5,0.4c-2.2,1.9-2.7,5.2-2.8,7.7v0.8l0.6,0.5c1.5,1.4,5.4,1.7,8.5,1.7c1.6,0,6.9-0.1,8.9-1.6l0.7-0.5
			l0.1-0.8c0.3-2.4-0.7-6.1-2.6-8l-0.5-0.5h-0.7c-0.3,0-0.6,0-0.9,0c0-0.1,0.1-0.2,0.1-0.3c0.3-0.3,0.5-0.6,0.7-1
			c0.2-0.5,0.3-1.2,0.3-1.9v-0.2V9.6l-0.2-0.1c0-1.9-0.6-3.4-1.8-4.3C20.7,4.7,19.4,4.3,18,4.3L18,4.3z"/>
	</g>
</g>
</svg>
