<?xml version="1.0" encoding="utf-8"?>
<!-- Generator: Adobe Illustrator 19.2.0, SVG Export Plug-In . SVG Version: 6.00 Build 0)  -->
<svg version="1.1" id="Слой_1" xmlns="http://www.w3.org/2000/svg" xmlns:xlink="http://www.w3.org/1999/xlink" x="0px" y="0px"
	 viewBox="0 0 35 35" style="enable-background:new 0 0 35 35;" xml:space="preserve">
<style type="text/css">
	.st0{fill:#111213;}
	.st1{fill:#DADADB;}
</style>
<g>
	<path class="st0" d="M0,0v20.6h20.6V0H0z M17.4,17.4H3.2V3.2h14.2V17.4z"/>
	<g>
		<g>
			<path class="st0" d="M21.3,25.4c-0.5,0-1-0.3-1.2-0.8h-5.6c-0.2,0.5-0.7,0.8-1.2,0.8h-3.1c-0.5,0-1-0.3-1.2-0.8l0,0
				c-1.3,0-2.4-1.1-2.4-2.4v-12c0-1.3,1.1-2.4,2.4-2.4h4.5l-0.7-0.6c-0.3-0.2-0.4-0.5-0.4-0.9c0-0.3,0.1-0.7,0.3-0.9
				c0.2-0.3,0.6-0.4,1-0.4c0.3,0,0.6,0.1,0.8,0.3l2.2,1.9l2.2-1.9C19.1,5.1,19.4,5,19.7,5c0.4,0,0.7,0.2,1,0.4C20.9,5.7,21,6,21,6.3
				S20.8,7,20.6,7.2l-0.7,0.6h5.7c1.3,0,2.4,1.1,2.4,2.4v12c0,1.3-1.1,2.4-2.4,2.4l0,0c-0.2,0.5-0.7,0.8-1.2,0.8H21.3z M25,20.8
				C24.9,20.8,24.9,20.8,25,20.8L25,20.8z M25,17.6c-0.2,0-0.4,0.2-0.4,0.4c0,0.2,0.2,0.4,0.4,0.4c0.2,0,0.4-0.2,0.4-0.4
				C25.4,17.8,25.2,17.6,25,17.6z"/>
			<path class="st1" d="M19.8,5.7c0.2,0,0.3,0.1,0.4,0.2c0.2,0.2,0.2,0.6-0.1,0.8L18,8.5h7.6c0.9,0,1.7,0.8,1.7,1.7v12
				c0,0.9-0.8,1.7-1.7,1.7H25V24c0,0.4-0.3,0.7-0.6,0.7h-3.1c-0.4,0-0.6-0.3-0.6-0.7v-0.1H14V24c0,0.4-0.3,0.7-0.6,0.7h-3.1
				c-0.4,0-0.6-0.3-0.6-0.7v-0.1H9c-0.9,0-1.7-0.8-1.7-1.7v-12c0-0.9,0.8-1.7,1.7-1.7h6.4l-2.1-1.8c-0.2-0.2-0.3-0.6-0.1-0.8
				c0.1-0.1,0.3-0.2,0.4-0.2c0.1,0,0.3,0,0.4,0.1l2.7,2.3l2.7-2.3C19.5,5.8,19.6,5.7,19.8,5.7 M25,19.2c0.6,0,1.1-0.5,1.1-1.1
				S25.6,17,25,17s-1.1,0.5-1.1,1.1C23.8,18.7,24.3,19.2,25,19.2 M25,21.6c0.4,0,0.7-0.3,0.7-0.7c0-0.4-0.3-0.7-0.7-0.7
				c-0.4,0-0.7,0.3-0.7,0.7C24.2,21.3,24.6,21.6,25,21.6 M19.8,4.3c-0.5,0-0.9,0.2-1.3,0.5l-1.7,1.5l-1.7-1.5
				c-0.4-0.3-0.8-0.5-1.3-0.5c-0.6,0-1.1,0.3-1.5,0.7c-0.4,0.4-0.5,0.9-0.5,1.5c0,0.2,0.1,0.5,0.2,0.7H9c-1.7,0-3.1,1.4-3.1,3.1v12
				c0,1.6,1.2,2.9,2.7,3.1c0.4,0.5,1,0.8,1.6,0.8h3.1c0.6,0,1.2-0.3,1.6-0.8h4.8c0.4,0.5,1,0.8,1.6,0.8h3.1c0.7,0,1.2-0.3,1.6-0.8
				c1.5-0.2,2.7-1.5,2.7-3.1v-12c0-1.7-1.4-3.1-3.1-3.1h-4.1c0.1-0.2,0.2-0.4,0.2-0.7c0-0.5-0.1-1-0.5-1.4
				C20.9,4.6,20.4,4.3,19.8,4.3L19.8,4.3z"/>
		</g>
		<g>
			<path class="st1" d="M22.5,20.6c0,0.5-0.4,0.8-0.9,0.8H10c-0.5,0-0.9-0.4-0.9-0.8v-9.5c0-0.5,0.4-0.8,0.9-0.8h11.7
				c0.5,0,0.9,0.4,0.9,0.8v9.5H22.5z"/>
		</g>
	</g>
</g>
</svg>
