<?xml version="1.0" encoding="utf-8"?>
<!-- Generator: Adobe Illustrator 19.2.0, SVG Export Plug-In . SVG Version: 6.00 Build 0)  -->
<svg version="1.1" id="Слой_1" xmlns="http://www.w3.org/2000/svg" xmlns:xlink="http://www.w3.org/1999/xlink" x="0px" y="0px"
	 viewBox="0 0 35 35" style="enable-background:new 0 0 35 35;" xml:space="preserve">
<style type="text/css">
	.st0{fill:#111213;}
	.st1{fill:#DADADB;}
</style>
<g>
	<path class="st0" d="M0,0v20.6h20.6V0H0z M17.4,17.4H3.2V3.2h14.2V17.4z"/>
	<g>
		<g>
			<polygon class="st0" points="21.4,10.5 21.4,3.3 28.6,10.5 			"/>
			<path class="st1" d="M22.4,5.7l3.8,3.8h-3.8V5.7 M20.4,0.9v4.8v3.8v2h2h3.8H31l-3.4-3.4l-3.8-3.8L20.4,0.9L20.4,0.9z"/>
		</g>
		<g>
			<path class="st0" d="M11.3,25.7c-0.8,0-1.5-0.7-1.5-1.5V6.1c0-0.8,0.7-1.5,1.5-1.5h11.2v4.8h4.8v14.8c0,0.8-0.7,1.5-1.5,1.5
				C25.8,25.7,11.3,25.7,11.3,25.7z"/>
			<path class="st1" d="M21.5,5.7v4.2c0,0.3,0.3,0.6,0.6,0.6h4.2v13.8c0,0.3-0.2,0.5-0.5,0.5H11.3c-0.3,0-0.5-0.2-0.5-0.5V6.1
				c0-0.3,0.2-0.5,0.5-0.5h10.2 M13.6,10.5h6v-1h-6V10.5 M13.6,13.4h10v-1h-10V13.4 M13.6,16.2h10v-1h-10V16.2 M13.6,19.1h10v-0.9
				h-10V19.1 M21.1,22.5h2.4v-1h-2.4V22.5 M23.5,3.7h-2H11.3c-1.4,0-2.5,1.1-2.5,2.5v18.1c0,1.4,1.1,2.5,2.5,2.5h14.5
				c1.4,0,2.5-1.1,2.5-2.5V10.4v-2h-2h-2.8V5.6V3.7L23.5,3.7z"/>
		</g>
	</g>
</g>
</svg>
