<?xml version="1.0" encoding="utf-8"?>
<!-- Generator: Adobe Illustrator 19.2.0, SVG Export Plug-In . SVG Version: 6.00 Build 0)  -->
<svg version="1.1" id="Слой_1" xmlns="http://www.w3.org/2000/svg" xmlns:xlink="http://www.w3.org/1999/xlink" x="0px" y="0px"
	 viewBox="0 0 35 35" style="enable-background:new 0 0 35 35;" xml:space="preserve">
<style type="text/css">
	.st0{fill:#111213;}
	.st1{fill:#DADADB;}
</style>
<g>
	<path class="st0" d="M0,0v20.6h20.6V0H0z M17.4,17.4H3.2V3.2h14.2V17.4z"/>
	<g>
		<path class="st0" d="M21.3,24.8v-3H15v3H9.3v-3H7.7v-9.3h1.2C9,10.7,9.7,9,11,7.7c1.4-1.4,3.2-2.2,5.2-2.2h4.1
			c2,0,3.8,0.8,5.2,2.2c1.3,1.3,2.1,3,2.1,4.8h0.9v9.2H27v3h-5.7V24.8z M24.7,17.1v-0.2l-1.2,0.2H24.7z M12.7,17.1l-1.2-0.2v0.2
			H12.7z M22.9,12.5c-0.1-0.5-0.3-1.1-0.7-1.5c-0.5-0.5-1.1-0.8-1.8-0.8h-4.1c-0.7,0-1.3,0.3-1.8,0.8c-0.4,0.4-0.7,0.9-0.7,1.5H22.9
			z"/>
		<path class="st1" d="M20.3,6.6c1.7,0,3.3,0.7,4.4,1.8c1.1,1.1,1.8,2.7,1.8,4.4v0.7h0.9v7.1h-1.6v3h-3.5v-3h-8.5v3h-3.5v-3H8.8
			v-7.1h1.1v-0.7c0-1.7,0.7-3.3,1.8-4.4s2.7-1.8,4.4-1.8H20.3 M12.5,13.6H24v-0.7c0-1-0.4-1.9-1.1-2.6s-1.6-1.1-2.6-1.1h-4.1
			c-1,0-1.9,0.4-2.6,1.1c-0.7,0.7-1.1,1.6-1.1,2.6L12.5,13.6 M21.7,18.2H24h1.8v-2.5l-4.1,0.6L21.7,18.2 M10.5,18.2h2.1h2.1v-1.9
			l-4.1-0.6v2.5 M20.3,4.5h-4.1c-2.2,0-4.4,0.9-6,2.5C9,8.2,8.1,9.8,7.8,11.5H6.6v2.2v7.1V23h1.6v0.8V26h2.2h3.5H16v-2.2V23h4.2v0.8
			V26h2.2h3.5h2.2v-2.2V23h1.6v-2.2v-7.1v-2.2h-1c-0.3-1.7-1.1-3.3-2.3-4.5C24.7,5.4,22.6,4.5,20.3,4.5L20.3,4.5z M15.7,11.5
			c0.2-0.1,0.3-0.1,0.5-0.1h4.1c0.2,0,0.3,0,0.5,0.1H15.7L15.7,11.5z"/>
	</g>
</g>
</svg>
