<?xml version="1.0" encoding="utf-8"?>
<!-- Generator: Adobe Illustrator 19.2.0, SVG Export Plug-In . SVG Version: 6.00 Build 0)  -->
<svg version="1.1" id="Слой_1" xmlns="http://www.w3.org/2000/svg" xmlns:xlink="http://www.w3.org/1999/xlink" x="0px" y="0px"
	 viewBox="0 0 35 35" style="enable-background:new 0 0 35 35;" xml:space="preserve">
<style type="text/css">
	.st0{fill:#111213;}
	.st1{fill:#DADADB;}
</style>
<g>
	<path class="st0" d="M0,0v20.6h20.6V0H0z M17.4,17.4H3.2V3.2h14.2V17.4z"/>
	<g>
		<path class="st0" d="M20.5,26.1c-0.8,0-1.4-0.6-1.5-1.4v-0.8l-0.6-0.1c-0.7-0.1-1.3-0.7-1.4-1.4l-0.1-0.8c-0.1,0-0.1,0-0.2,0h-0.1
			h-0.1c-0.7-0.2-1-0.9-1.1-1.2c-0.1-0.2-0.1-0.4-0.3-0.6c-0.7,0.2-1.4,0.4-2.2,0.4c-1.8,0-3.5-0.7-4.8-2c-2.6-2.6-2.6-6.9,0-9.6
			c1.3-1.3,3-2,4.8-2s3.5,0.7,4.8,2c1.8,1.8,2.4,4.3,1.7,6.7l5.7,5.7c0.4,0.4,0.6,0.9,0.6,1.5v2.2c0,0.8-0.6,1.4-1.4,1.4L20.5,26.1
			L20.5,26.1z M11.3,11.1c-0.1,0-0.2,0-0.3,0.1s-0.1,0.2-0.1,0.3s0,0.2,0.1,0.3s0.2,0.1,0.3,0.1s0.2,0,0.3-0.1s0.1-0.4,0-0.5
			C11.5,11.1,11.4,11.1,11.3,11.1z"/>
		<path class="st1" d="M13.1,7.5c1.5,0,2.9,0.6,4.1,1.7c1.7,1.7,2.1,4.2,1.3,6.3l6.2,6.2c0.2,0.2,0.3,0.5,0.3,0.8v2.2
			c0,0.2-0.2,0.4-0.4,0.4h-4c-0.2,0-0.4-0.2-0.5-0.4L20,23.4c0-0.2-0.2-0.5-0.5-0.5l-1-0.1c-0.2,0-0.5-0.2-0.5-0.5l-0.1-1
			c0-0.7-1-0.8-1-0.8c-0.5-0.2-0.2-0.9-1.1-1.7l-0.3-0.3c-0.8,0.4-1.6,0.5-2.4,0.5c-1.5,0-2.9-0.6-4.1-1.7C6.8,15,6.8,11.4,9,9.1
			C10.2,8.1,11.6,7.5,13.1,7.5 M11.3,12.9c0.3,0,0.7-0.1,1-0.4c0.5-0.5,0.5-1.4,0-1.9c-0.3-0.3-0.6-0.4-1-0.4c-0.3,0-0.7,0.1-1,0.4
			c-0.5,0.5-0.5,1.4,0,1.9C10.6,12.7,11,12.9,11.3,12.9 M23.1,23.1c0.1,0,0.2,0,0.3-0.1c0.2-0.2,0.2-0.5,0-0.6l-5.7-5.7l-0.6,0.6
			l5.7,5.7C22.9,23.1,23,23.1,23.1,23.1 M13.1,5.5c-2.1,0-4,0.8-5.5,2.3c-3,3-3,8,0,11c1.5,1.5,3.4,2.3,5.5,2.3
			c0.5,0,1.1-0.1,1.6-0.2c0.2,0.4,0.5,1.1,1.3,1.4v0.2c0.1,1.1,0.9,2,2,2.2c0.1,1.3,1.1,2.3,2.5,2.3h4c1.3,0,2.4-1.1,2.4-2.4v-2.2
			c0-0.8-0.3-1.6-0.9-2.2l-5.3-5.3c0.5-2.5-0.2-5.2-2.1-7.1C17.1,6.3,15.2,5.5,13.1,5.5L13.1,5.5z"/>
	</g>
</g>
</svg>
