<?xml version="1.0" encoding="utf-8"?>
<!-- Generator: Adobe Illustrator 19.2.0, SVG Export Plug-In . SVG Version: 6.00 Build 0)  -->
<svg version="1.1" id="Слой_1" xmlns="http://www.w3.org/2000/svg" xmlns:xlink="http://www.w3.org/1999/xlink" x="0px" y="0px"
	 viewBox="0 0 35 35" style="enable-background:new 0 0 35 35;" xml:space="preserve">
<style type="text/css">
	.st0{fill:#111213;}
	.st1{fill:#DADADB;}
</style>
<g>
	<path class="st0" d="M0,0v20.6h20.6V0H0z M17.4,17.4H3.2V3.2h14.2V17.4z"/>
	<g>
		<path class="st0" d="M19,25.2c-1.6,0-5.5-0.1-6.7-1.3l-0.2-0.2v-0.3c0-0.9,0.1-1.9,0.4-2.9h-0.7c-1.4,0-4-0.1-4.8-1l-0.2-0.2V19
			c0-1.4,0.3-3.3,1.5-4.4l0.2-0.2h1.3h0.1l0,0c-0.1-0.2-0.3-0.4-0.4-0.7c-0.2-0.1-0.3-0.3-0.4-0.5c-0.1-0.3-0.2-0.6-0.2-1v-0.5H9
			c-0.1-1,0.1-1.8,0.8-2.4c0.5-0.4,1.3-0.7,2.1-0.7c0.8,0,1.5,0.2,2,0.6c0.7,0.5,1,1.4,1,2.5l0,0L15,12c0,0.5,0,0.8-0.2,1.1
			c-0.1,0.2-0.2,0.4-0.4,0.5c-0.1,0.2-0.2,0.4-0.3,0.6l0,0h1.1c0-0.2-0.1-0.5,0-0.7V13l0.1-0.1c-0.1-1.5,0-2.5,1.1-3.4
			c0.7-0.6,1.8-0.9,2.9-0.9c1,0,2,0.3,2.7,0.8s1.1,1.3,1.2,2.4c0.1-0.9,0.4-1.7,0.9-2.1C24.9,9.1,26,9,26.5,9c0.9,0,1.6,0.2,2.1,0.6
			c1,0.7,1.3,3.3,1.1,4.5l-0.1,0.3l-0.3,0.2c-0.2,0.1-0.4,0.2-0.7,0.2c-0.1,0.1-0.1,0.2-0.2,0.3c1.3,0.1,1.6,0.4,1.8,0.7
			c0.7,0.9,0.7,2.3,0.6,3l-0.1,0.4l-0.4,0.2c-0.9,0.4-2.3,0.7-3.9,0.7h-0.3c0.4,1.2,0.6,2.5,0.5,3.5v0.3l-0.3,0.2
			C24.9,24.9,21.6,25.2,19,25.2z M22.1,16.7l0.2-0.4c0.1-0.2,0.2-0.5,0.4-0.6c0.1-0.2,0.4-0.5,1.7-0.7c-0.1-0.1-0.1-0.2-0.2-0.3
			c-0.1,0-0.3,0-0.4,0l-0.6-0.1l0,0c0,0.1,0,0.1-0.1,0.2c-0.1,0.3-0.3,0.5-0.5,0.7c-0.1,0.4-0.3,0.7-0.6,1
			C22.1,16.6,22.1,16.7,22.1,16.7z"/>
		<path class="st1" d="M11.9,9.2c0.6,0,1.2,0.2,1.6,0.4c0.6,0.4,0.8,1.1,0.6,2.3c0,0,0.1,0,0.1,0.1l0.1,0.1v0.1c0,0.3,0,0.5-0.1,0.7
			s-0.2,0.3-0.3,0.4c-0.1,0.3-0.3,0.7-0.5,0.9c0.1,0.4,0.2,0.7,0.4,0.9c0.1,0.1,0.3,0.1,0.4,0.1c0.1,0,0.1,0,0.2,0
			c0.2,0,0.5,0,0.7,0c0.1,0.3,0.3,0.6,0.5,0.8c0.1,0.3,0.3,0.6,0.5,0.9l0,0c-0.5,0-0.9,0-1.4,0h-0.4L14,17.2
			c-0.8,0.7-1.3,1.6-1.7,2.7c-0.2,0-0.3,0-0.5,0c-1.9,0-3.8-0.2-4.3-0.7c0-1.1,0.2-2.9,1.3-3.8c0.3,0,0.7,0,1,0h0.1
			c0.2,0,0.4-0.1,0.6-0.2c0.1-0.2,0.2-0.4,0.3-0.7c-0.2-0.3-0.4-0.6-0.6-1c-0.1-0.1-0.2-0.2-0.3-0.4s-0.1-0.4-0.1-0.7v-0.1l0.1-0.1
			l0,0c-0.2-1.2,0-1.8,0.5-2.2C10.7,9.4,11.3,9.2,11.9,9.2 M19.2,9.4c0.8,0,1.7,0.2,2.2,0.6c0.8,0.6,1.1,1.7,0.9,3.2
			c0,0,0.1,0,0.1,0.1l0.1,0.1v0.1c0,0.4,0,0.7-0.1,1c-0.1,0.2-0.2,0.4-0.4,0.5c-0.2,0.5-0.4,1-0.7,1.3c0.1,0.6,0.3,1,0.5,1.3
			c0.2,0.1,0.4,0.1,0.7,0.1c0.1,0,0.1,0,0.2,0c0.4,0,0.8,0,1.3,0c1.2,1.1,2,3.8,1.8,5.6c-1,0.7-3.9,1.1-6.8,1.1
			c-2.8,0-5.5-0.3-6.2-1.1c0-1.5,0.3-4.2,1.8-5.5c0.5,0,1,0,1.4,0c0.1,0,0.1,0,0.2,0c0.3,0,0.6-0.1,0.8-0.3c0.2-0.3,0.3-0.6,0.4-1
			c-0.4-0.4-0.6-0.9-0.8-1.4c-0.2-0.1-0.4-0.3-0.5-0.5c-0.1-0.3-0.2-0.6-0.2-1v-0.1l0.1-0.1c0,0,0,0,0.1,0c-0.2-1.7,0-2.6,0.7-3.2
			C17.5,9.6,18.3,9.4,19.2,9.4 M26.4,9.7c0.7,0,1.3,0.1,1.7,0.4c0.6,0.4,1,2.6,0.8,3.8c-0.1,0.1-0.7,0-0.8,0.1
			c-0.2,0.4-0.5,0.7-0.8,1c0.1,0.4,0.2,0.5,0.3,0.7c0.2,0,1.8,0.1,1.9,0.4c0.6,0.7,0.6,1.9,0.5,2.5c-0.8,0.4-2.2,0.6-3.6,0.6
			c-0.1,0-0.1,0-0.2,0c-0.4-0.9-0.8-1.7-1.4-2.2l-0.3-0.3H24c-0.3,0-0.6,0-1,0c0.1-0.2,0.2-0.4,0.3-0.5c0.1-0.3,1.7-0.4,1.9-0.4
			c0.1-0.3,0.1-0.5,0.2-0.8c-0.4-0.3-0.6-0.6-0.8-1c-0.2,0-0.6,0-0.8,0c-0.2-1.3,0.1-3.3,0.6-3.7C25,9.9,25.7,9.7,26.4,9.7
			 M11.9,7.7c-1,0-1.9,0.3-2.6,0.9c-0.9,0.7-1.1,1.7-1.1,2.6l0,0V12v0.1c0,0.5,0.1,1,0.2,1.3c0,0.1,0,0.1,0.1,0.2H8.1L7.7,14
			c-1.4,1.3-1.8,3.4-1.8,5v0.7l0.5,0.5c0.8,0.8,2.5,1.1,5.1,1.2c-0.1,0.7-0.2,1.5-0.2,2.1v0.7l0.5,0.5c1.3,1.2,4.7,1.5,7.3,1.5
			c1.4,0,5.9-0.1,7.7-1.3l0.6-0.4l0.1-0.7c0.1-0.8,0-1.8-0.2-2.9c1,0,2.4-0.2,3.5-0.7l0.7-0.3l0.1-0.8c0.2-1,0.1-2.5-0.7-3.6
			c-0.1-0.2-0.3-0.3-0.5-0.5l0.1-0.6c0.2-1.4,0-4.3-1.4-5.3c-0.9-0.6-2-0.7-2.6-0.7l0,0c-0.5,0-1.9,0.1-2.9,0.9
			c-0.2,0.1-0.3,0.3-0.4,0.5c-0.2-0.3-0.5-0.5-0.8-0.7c-0.8-0.6-1.9-0.9-3.1-0.9c-1.3,0-2.5,0.4-3.3,1.1c-0.2,0.2-0.4,0.4-0.6,0.6
			c-0.2-0.4-0.5-0.8-0.9-1.1C13.7,7.9,12.8,7.7,11.9,7.7L11.9,7.7z"/>
	</g>
</g>
</svg>
