<?xml version="1.0" encoding="utf-8"?>
<!-- Generator: Adobe Illustrator 19.2.0, SVG Export Plug-In . SVG Version: 6.00 Build 0)  -->
<svg version="1.1" id="Слой_1" width="35px" height="35px" xmlns="http://www.w3.org/2000/svg" xmlns:xlink="http://www.w3.org/1999/xlink" x="0px" y="0px"
	 viewBox="0 0 35px 35px" xml:space="preserve">
<style type="text/css">
	.st0{fill:#FFFFFF;}
	.st1{fill:#626265;}
</style>
<polygon class="st0" points="35.4,0 0,0 0,35.4 35.4,35.4 35.4,0 "/>
<g>
	<path class="st1" d="M8.2,13.6L8.2,13.6c-0.8,0-1.5,0.6-1.5,1.4v6.1c0,0.8,0.6,1.4,1.4,1.4h0.1c0.8,0,1.4-0.6,1.4-1.4V15
		C9.6,14.2,9,13.6,8.2,13.6L8.2,13.6z M8.2,13.6"/>
	<path class="st1" d="M11.2,23.5c0,0.7,0.6,1.3,1.3,1.3h1.4v3.3c0,0.8,0.6,1.4,1.4,1.4h0.1c0.8,0,1.4-0.6,1.4-1.4v-3.3h1.9v3.3
		c0,0.8,0.6,1.4,1.4,1.4h0.1c0.8,0,1.4-0.6,1.4-1.4v-3.3h1.4c0.7,0,1.3-0.6,1.3-1.3v-9.7H11.2V23.5z M11.2,23.5"/>
	<path class="st1" d="M21,7.1l1.1-1.7c0.1-0.1,0-0.3-0.1-0.3c-0.1-0.1-0.3,0-0.3,0.1l-1.1,1.8c-0.9-0.3-1.8-0.5-2.8-0.5
		c-1,0-2,0.2-2.8,0.5l-1.1-1.8C13.7,5,13.5,5,13.4,5.1c-0.1,0.1-0.1,0.2-0.1,0.3l1.1,1.7c-2,1-3.3,2.8-3.3,4.9c0,0.1,0,0.3,0,0.4
		h13.1c0-0.1,0-0.3,0-0.4C24.3,9.9,22.9,8.1,21,7.1L21,7.1z M15.1,11.2c-0.7,0-1.3-0.6-1.3-1.3c0-0.7,0.6-1.3,1.3-1.3
		c0.7,0,1.3,0.6,1.3,1.3C16.4,10.6,15.8,11.2,15.1,11.2L15.1,11.2z M20.3,11.2c-0.7,0-1.3-0.6-1.3-1.3c0-0.7,0.6-1.3,1.3-1.3
		c0.7,0,1.3,0.6,1.3,1.3C21.6,10.6,21,11.2,20.3,11.2L20.3,11.2z M20.7,10.1"/>
	<path class="st1" d="M27.2,13.6L27.2,13.6c-0.8,0-1.5,0.6-1.5,1.4v6.1c0,0.8,0.6,1.4,1.4,1.4h0.1c0.8,0,1.4-0.6,1.4-1.4V15
		C28.6,14.2,28,13.6,27.2,13.6L27.2,13.6z M27.2,13.6"/>
</g>
</svg>
