<?xml version="1.0" encoding="utf-8"?>
<!-- Generator: Adobe Illustrator 19.2.0, SVG Export Plug-In . SVG Version: 6.00 Build 0)  -->
<svg version="1.1" id="Слой_1" width="35px" height="35px" xmlns="http://www.w3.org/2000/svg" xmlns:xlink="http://www.w3.org/1999/xlink" x="0px" y="0px"
	 viewBox="0 0 35px 35px" xml:space="preserve">
<style type="text/css">
	.st0{fill:#FFFFFF;}
	.st1{fill-rule:evenodd;clip-rule:evenodd;fill:#626265;}
</style>
<g>
	<polygon class="st0" points="0,0 0,35 35,35 35,0 0,0 	"/>
	<path class="st1" d="M26.4,20.5c-0.5,1.1-0.7,1.6-1.3,2.5c-0.9,1.3-2.1,3-3.6,3c-1.4,0-1.7-0.9-3.5-0.9c-1.8,0-2.2,0.9-3.6,0.9
		c-1.5,0-2.7-1.5-3.6-2.8c-1.4-2.2-2.1-4.6-2.1-6.7c0-1.4,0.3-2.7,0.9-3.6c1.1-1.6,2.8-2.6,4.3-2.6c1.6,0,2.6,0.9,4,0.9
		c1.3,0,2.1-0.9,3.9-0.9c1.4,0,2.9,0.8,4,2.1C22.3,14.2,22.9,19.2,26.4,20.5L26.4,20.5L26.4,20.5z M20.4,8.7c0.7-0.9,1.2-2.1,1-3.4
		c-1.1,0.1-2.4,0.8-3.2,1.7c-0.7,0.8-1.3,2.1-1,3.3C18.5,10.4,19.7,9.6,20.4,8.7L20.4,8.7L20.4,8.7z"/>
</g>
</svg>
