<?xml version="1.0" encoding="utf-8"?><svg version="1.1" id="facebook" width="40px" height="40px" xmlns="http://www.w3.org/2000/svg" xmlns:xlink="http://www.w3.org/1999/xlink" x="0px" y="0px" viewBox="0 0 40px 40px" style="enable-background:new 0 0 40 40;" xml:space="preserve"><style type="text/css">#facebook .st0{fill:#4353A0;}#facebook .st1{fill:#F2F2F3;}#facebook .st2{fill:none;}</style><g><polygon class="st0" points="39.8,0 0,0 0,39.8 39.8,39.8 39.8,0 "/><path class="st1" d="M14.3,15.8h2.5v-1.1v-1.1v-0.2c0-1.1,0-2.7,0.8-3.8c0.8-1.1,2-1.8,3.9-1.8c3.2,0,4.5,0.5,4.5,0.5l-0.6,3.7c0,0-1-0.3-2-0.3c-1,0-1.8,0.3-1.8,1.3v0.4v1.3v1.1h4l-0.3,3.6h-3.7V32h-4.7V19.4h-2.5V15.8L14.3,15.8z"/></g><rect x="2882" y="1" class="st2" width="1920" height="5400"/></svg>