<?xml version="1.0" encoding="utf-8"?><svg version="1.1" id="odnoklassniki" width="40px" height="40px" xmlns="http://www.w3.org/2000/svg" xmlns:xlink="http://www.w3.org/1999/xlink" x="0px" y="0px" viewBox="0 0 40px 40px" xml:space="preserve"><style type="text/css">	#odnoklassniki .st0{fill:#E09230;}#odnoklassniki .st1{fill-rule:evenodd;clip-rule:evenodd;fill:#F2F2F3;}#odnoklassniki .st2{fill:none;}</style><g><polygon class="st0" points="0,0 0,39.8 39.8,39.8 39.8,0 0,0 	"/><path class="st1" d="M28.2,21c-0.4-0.8-1.5-1.5-3-0.3c-2,1.6-5.3,1.6-5.3,1.6s-3.2,0-5.3-1.6c-1.5-1.2-2.6-0.5-3,0.3c-0.7,1.4,0.1,2.1,1.9,3.3c1.5,1,3.7,1.4,5,1.5l-1.1,1.1c-1.6,1.6-3.2,3.2-4.2,4.2c-0.6,0.6-0.6,1.7,0,2.3l0.2,0.2c0.3,0.3,0.7,0.5,1.2,0.5h0c0.4,0,0.8-0.2,1.2-0.5l4.2-4.2c1.6,1.6,3.2,3.2,4.2,4.2c0.6,0.6,1.7,0.6,2.3,0l0.2-0.2c0.6-0.6,0.6-1.7,0-2.3l-4.2-4.2l-1.1-1.1c1.4-0.1,3.5-0.5,5-1.5C28.1,23.1,28.9,22.4,28.2,21L28.2,21z M19.9,9.4c2,0,3.5,1.6,3.5,3.5c0,2-1.6,3.5-3.5,3.5c-2,0-3.5-1.6-3.5-3.5C16.4,11,18,9.4,19.9,9.4L19.9,9.4z M19.9,20.1c4,0,7.2-3.2,7.2-7.2c0-4-3.2-7.2-7.2-7.2c-4,0-7.2,3.2-7.2,7.2C12.7,16.9,16,20.1,19.9,20.1L19.9,20.1z"/></g><rect x="2882" y="1" class="st2" width="1920" height="5400"/></svg>