<?xml version="1.0" encoding="utf-8"?><svg version="1.1" id="twitter" width="40px" height="40px" xmlns="http://www.w3.org/2000/svg" xmlns:xlink="http://www.w3.org/1999/xlink" x="0px" y="0px" viewBox="0 0 40px 40px" xml:space="preserve"><style type="text/css">#twitter .st0{fill:#90CBDB;}#twitter .st1{fill:#F2F2F3;}#twitter .st2{fill:none;}</style><g><polygon class="st0" points="0,0 0,39.8 39.8,39.8 39.8,0 0,0"/><path class="st1" d="M33.2,12.2c-0.9,0.4-1.9,0.7-3,0.8c1.1-0.6,1.9-1.7,2.3-2.9c-1,0.6-2.1,1-3.3,1.3c-1-1-2.3-1.6-3.8-1.6c-2.9,0-5.2,2.3-5.2,5.2c0,0.4,0,0.8,0.1,1.2c-4.3-0.2-8.2-2.3-10.8-5.5c-0.5,0.8-0.7,1.7-0.7,2.6c0,1.8,0.9,3.4,2.3,4.3c-0.9,0-1.7-0.3-2.4-0.7c0,0,0,0,0,0.1c0,2.5,1.8,4.6,4.2,5.1c-0.4,0.1-0.9,0.2-1.4,0.2c-0.3,0-0.7,0-1-0.1c0.7,2.1,2.6,3.6,4.9,3.6c-1.8,1.4-4,2.2-6.5,2.2c-0.4,0-0.8,0-1.2-0.1c2.3,1.5,5.1,2.3,8,2.3c9.6,0,14.9-8,14.9-14.9c0-0.2,0-0.5,0-0.7C31.6,14.2,32.5,13.2,33.2,12.2L33.2,12.2z"/></g><rect x="2882" y="1" class="st2" width="1920" height="5400"/></svg>