<?xml version="1.0" encoding="utf-8"?><svg version="1.1" id="vkontakte" width="40px" height="40px" xmlns="http://www.w3.org/2000/svg" xmlns:xlink="http://www.w3.org/1999/xlink" x="0px" y="0px" viewBox="0 0 40px 40px" xml:space="preserve"><style type="text/css">#vkontakte .st0{fill:#65A9DF;}#vkontakte .st1{fill-rule:evenodd;clip-rule:evenodd;fill:#F2F2F3;}#vkontakte .st2{fill:none;}</style><g><polygon class="st0" points="0,0 0,39.8 39.8,39.8 39.8,0 0,0"/><path class="st1" d="M11.9,9.1h9.5c3.1,0,5.8,1.5,5.8,4.6c0,2.6-0.9,3.6-2.9,4.7c0.2,0.1,1.3,0.5,1.6,0.6c0.6,0.3,0.9,0.6,1.3,1c1.1,1.1,1.3,2.1,1.3,3.8c0,4-3.9,6-7.6,6h-9L11.9,9.1L11.9,9.1z M17,14.6v2.7c2.4,0,4.7,0.3,4.7-2.3c0-2.4-2.6-2-4.7-2V14.6L17,14.6z M17,26.1c2.7,0,6,0.4,6-2.6c0.1-3.2-3.4-2.6-6-2.6V26.1L17,26.1z"/></g><rect x="2882" y="1" class="st2" width="1920" height="5400"/></svg>